<mxfile host="app.diagrams.net" modified="2022-10-20T08:42:01.827Z" agent="5.0 (X11; Linux x86_64) AppleWebKit/537.36 (KHTML, like Gecko) Chrome/106.0.0.0 Safari/537.36" etag="iRhvOBXQbHU8tauDZBEZ" version="20.4.2" type="github">
  <diagram id="prtHgNgQTEPvFCAcTncT" name="Page-1">
    <mxGraphModel dx="1181" dy="767" grid="1" gridSize="10" guides="1" tooltips="1" connect="1" arrows="1" fold="1" page="1" pageScale="1" pageWidth="827" pageHeight="1169" math="0" shadow="0">
      <root>
        <mxCell id="0" />
        <mxCell id="1" parent="0" />
        <mxCell id="dNxyNK7c78bLwvsdeMH5-11" value="Tesla 開賣中, 請排隊好嗎" style="swimlane;html=1;startSize=20;horizontal=1;containerType=tree;glass=0;" parent="1" vertex="1">
          <mxGeometry x="40" y="40" width="710" height="610" as="geometry" />
        </mxCell>
        <UserObject label="這是貼文" name="Tessa Miller" position="CFO" location="Office 1" email="me@example.com" placeholders="1" link="https://www.draw.io" id="dNxyNK7c78bLwvsdeMH5-12">
          <mxCell style="whiteSpace=wrap;html=1;rounded=0;glass=0;treeMoving=1;treeFolding=1;" parent="dNxyNK7c78bLwvsdeMH5-11" vertex="1">
            <mxGeometry x="30" y="50" width="140" height="50" as="geometry" />
          </mxCell>
        </UserObject>
        <mxCell id="WpMNWaotwqzlzrTOEVe7-23" value="" style="curved=1;endArrow=classic;html=1;rounded=0;entryX=0;entryY=0.617;entryDx=0;entryDy=0;entryPerimeter=0;" edge="1" parent="dNxyNK7c78bLwvsdeMH5-11" target="WpMNWaotwqzlzrTOEVe7-26">
          <mxGeometry width="50" height="50" relative="1" as="geometry">
            <mxPoint x="100" y="100" as="sourcePoint" />
            <mxPoint x="221" y="162" as="targetPoint" />
            <Array as="points">
              <mxPoint x="80" y="170" />
              <mxPoint x="180" y="170" />
            </Array>
          </mxGeometry>
        </mxCell>
        <mxCell id="WpMNWaotwqzlzrTOEVe7-26" value="Model S" style="rounded=1;whiteSpace=wrap;html=1;" vertex="1" parent="dNxyNK7c78bLwvsdeMH5-11">
          <mxGeometry x="190" y="130" width="100" height="30" as="geometry" />
        </mxCell>
        <mxCell id="WpMNWaotwqzlzrTOEVe7-27" value="Model 3" style="rounded=1;whiteSpace=wrap;html=1;" vertex="1" parent="dNxyNK7c78bLwvsdeMH5-11">
          <mxGeometry x="190" y="350" width="100" height="30" as="geometry" />
        </mxCell>
        <mxCell id="WpMNWaotwqzlzrTOEVe7-28" value="S+1" style="rounded=1;whiteSpace=wrap;html=1;" vertex="1" parent="dNxyNK7c78bLwvsdeMH5-11">
          <mxGeometry x="324" y="170" width="100" height="30" as="geometry" />
        </mxCell>
        <mxCell id="WpMNWaotwqzlzrTOEVe7-29" value="S+2" style="rounded=1;whiteSpace=wrap;html=1;" vertex="1" parent="dNxyNK7c78bLwvsdeMH5-11">
          <mxGeometry x="324" y="230" width="100" height="30" as="geometry" />
        </mxCell>
        <mxCell id="WpMNWaotwqzlzrTOEVe7-30" value="M3+1" style="rounded=1;whiteSpace=wrap;html=1;" vertex="1" parent="dNxyNK7c78bLwvsdeMH5-11">
          <mxGeometry x="324" y="400" width="100" height="30" as="geometry" />
        </mxCell>
        <mxCell id="WpMNWaotwqzlzrTOEVe7-31" value="Model 100" style="rounded=1;whiteSpace=wrap;html=1;" vertex="1" parent="dNxyNK7c78bLwvsdeMH5-11">
          <mxGeometry x="190" y="490" width="100" height="30" as="geometry" />
        </mxCell>
        <mxCell id="WpMNWaotwqzlzrTOEVe7-32" value="哪有 100 ..." style="rounded=1;whiteSpace=wrap;html=1;" vertex="1" parent="dNxyNK7c78bLwvsdeMH5-11">
          <mxGeometry x="324" y="560" width="100" height="30" as="geometry" />
        </mxCell>
        <mxCell id="WpMNWaotwqzlzrTOEVe7-33" value="" style="curved=1;endArrow=classic;html=1;rounded=0;entryX=0;entryY=0.5;entryDx=0;entryDy=0;exitX=0.5;exitY=1;exitDx=0;exitDy=0;" edge="1" parent="dNxyNK7c78bLwvsdeMH5-11" source="dNxyNK7c78bLwvsdeMH5-12" target="WpMNWaotwqzlzrTOEVe7-27">
          <mxGeometry width="50" height="50" relative="1" as="geometry">
            <mxPoint x="100" y="110" as="sourcePoint" />
            <mxPoint x="200" y="158.51" as="targetPoint" />
            <Array as="points">
              <mxPoint x="90" y="180" />
              <mxPoint x="70" y="300" />
              <mxPoint x="80" y="330" />
              <mxPoint x="120" y="350" />
            </Array>
          </mxGeometry>
        </mxCell>
        <mxCell id="WpMNWaotwqzlzrTOEVe7-35" value="" style="curved=1;endArrow=classic;html=1;rounded=0;entryX=0;entryY=0.5;entryDx=0;entryDy=0;exitX=0.5;exitY=1;exitDx=0;exitDy=0;" edge="1" parent="dNxyNK7c78bLwvsdeMH5-11" source="WpMNWaotwqzlzrTOEVe7-26" target="WpMNWaotwqzlzrTOEVe7-28">
          <mxGeometry width="50" height="50" relative="1" as="geometry">
            <mxPoint x="110" y="110" as="sourcePoint" />
            <mxPoint x="200" y="158.51" as="targetPoint" />
            <Array as="points">
              <mxPoint x="248" y="200" />
            </Array>
          </mxGeometry>
        </mxCell>
        <mxCell id="WpMNWaotwqzlzrTOEVe7-49" value="" style="curved=1;endArrow=classic;html=1;rounded=0;entryX=0;entryY=0.5;entryDx=0;entryDy=0;exitX=0.5;exitY=1;exitDx=0;exitDy=0;" edge="1" parent="dNxyNK7c78bLwvsdeMH5-11" source="WpMNWaotwqzlzrTOEVe7-27" target="WpMNWaotwqzlzrTOEVe7-30">
          <mxGeometry width="50" height="50" relative="1" as="geometry">
            <mxPoint x="250" y="170" as="sourcePoint" />
            <mxPoint x="334" y="195" as="targetPoint" />
            <Array as="points">
              <mxPoint x="240" y="410" />
              <mxPoint x="270" y="430" />
            </Array>
          </mxGeometry>
        </mxCell>
        <mxCell id="WpMNWaotwqzlzrTOEVe7-50" value="" style="curved=1;endArrow=classic;html=1;rounded=0;entryX=0;entryY=0.5;entryDx=0;entryDy=0;exitX=0.5;exitY=1;exitDx=0;exitDy=0;" edge="1" parent="dNxyNK7c78bLwvsdeMH5-11" source="WpMNWaotwqzlzrTOEVe7-31" target="WpMNWaotwqzlzrTOEVe7-32">
          <mxGeometry width="50" height="50" relative="1" as="geometry">
            <mxPoint x="240" y="540" as="sourcePoint" />
            <mxPoint x="324" y="575" as="targetPoint" />
            <Array as="points">
              <mxPoint x="240" y="570" />
              <mxPoint x="270" y="590" />
            </Array>
          </mxGeometry>
        </mxCell>
        <mxCell id="WpMNWaotwqzlzrTOEVe7-34" value="" style="curved=1;endArrow=classic;html=1;rounded=0;exitX=0.5;exitY=1;exitDx=0;exitDy=0;" edge="1" parent="1" source="dNxyNK7c78bLwvsdeMH5-12">
          <mxGeometry width="50" height="50" relative="1" as="geometry">
            <mxPoint x="150" y="150" as="sourcePoint" />
            <mxPoint x="220" y="540" as="targetPoint" />
            <Array as="points">
              <mxPoint x="140" y="230" />
              <mxPoint x="100" y="370" />
              <mxPoint x="100" y="450" />
              <mxPoint x="130" y="500" />
            </Array>
          </mxGeometry>
        </mxCell>
        <mxCell id="WpMNWaotwqzlzrTOEVe7-36" value="" style="curved=1;endArrow=classic;html=1;rounded=0;entryX=0;entryY=0.5;entryDx=0;entryDy=0;" edge="1" parent="1" target="WpMNWaotwqzlzrTOEVe7-29">
          <mxGeometry width="50" height="50" relative="1" as="geometry">
            <mxPoint x="280" y="200" as="sourcePoint" />
            <mxPoint x="374" y="235" as="targetPoint" />
            <Array as="points">
              <mxPoint x="280" y="280" />
            </Array>
          </mxGeometry>
        </mxCell>
      </root>
    </mxGraphModel>
  </diagram>
</mxfile>
